<?xml version="1.0" standalone="no"?>
<!DOCTYPE svg PUBLIC "-//W3C//DTD SVG 20010904//EN"
 "http://www.w3.org/TR/2001/REC-SVG-20010904/DTD/svg10.dtd">
<svg version="1.0" xmlns="http://www.w3.org/2000/svg"
 width="350.000000pt" height="350.000000pt" viewBox="0 0 350.000000 350.000000"
 preserveAspectRatio="xMidYMid meet">
<metadata>
Created by potrace 1.14, written by Peter Selinger 2001-2017
</metadata>
<g transform="translate(0.000000,350.000000) scale(0.100000,-0.100000)"
fill="#000000" stroke="none">
<path d="M987 3445 c-2 -5 -4 -200 -4 -432 -1 -385 1 -423 16 -424 9 -1 32 -2
51 -3 l35 -1 3 -57 c3 -57 4 -58 33 -58 l29 0 -5 -117 c-2 -65 -7 -183 -10
-263 -7 -184 -14 -356 -20 -490 -2 -58 -7 -181 -11 -275 -4 -93 -8 -195 -9
-225 -1 -30 -3 -74 -4 -97 -1 -35 -5 -42 -23 -45 -21 -3 -23 -8 -22 -55 1 -60
9 -56 -108 -53 l-68 1 0 -329 0 -329 -29 5 c-28 4 -29 3 -32 -48 -2 -29 0 -54
4 -57 6 -4 1679 -7 1847 -4 l36 1 -1 56 0 55 -30 -3 -30 -3 -3 328 -2 328 -53
-1 c-28 -1 -68 -1 -88 -1 l-35 1 4 55 c4 53 3 55 -22 55 -25 0 -26 2 -27 68 0
37 -2 96 -4 132 -8 193 -16 388 -20 490 -2 63 -6 169 -9 235 -3 66 -8 192 -11
280 -4 88 -8 193 -10 233 -4 74 -3 77 38 73 18 -2 20 7 17 70 -2 41 6 46 68
44 l42 -1 0 433 0 433 -37 1 c-21 0 -119 1 -218 2 l-180 2 0 -175 0 -175 -57
0 -58 -1 0 176 0 175 -188 -2 c-103 -1 -201 -2 -219 -2 l-32 -1 0 -152 c0 -84
0 -162 0 -174 -1 -18 -7 -20 -50 -20 -28 1 -53 5 -57 9 -4 4 -7 81 -7 172 l1
165 -27 0 c-266 5 -401 3 -404 -5z"/>
</g>
</svg>
